<svg width="10119" height="2992" xmlns="http://www.w3.org/2000/svg" xmlns:xlink="http://www.w3.org/1999/xlink" xml:space="preserve" overflow="hidden"><g transform="translate(3162 339)"><g><rect x="-3159" y="-336" width="10114" height="2975" fill="#FFFFFF" fill-opacity="1"/><path d="M-2308.5 707C-2308.5 732.129-2498.78 752.5-2733.5 752.5-2968.22 752.5-3158.5 732.129-3158.5 707" stroke="#042433" stroke-width="6.875" stroke-linecap="butt" stroke-linejoin="miter" stroke-miterlimit="8" stroke-opacity="1" fill="none" fill-rule="evenodd"/><path d="M-3158.5 707C-3158.5 681.871-2968.22 661.5-2733.5 661.5-2498.78 661.5-2308.5 681.871-2308.5 707L-2308.5 889C-2308.5 914.129-2498.78 934.5-2733.5 934.5-2968.22 934.5-3158.5 914.129-3158.5 889Z" stroke="#042433" stroke-width="6.875" stroke-linecap="butt" stroke-linejoin="miter" stroke-miterlimit="8" stroke-opacity="1" fill="none" fill-rule="evenodd"/><text fill="#000000" fill-opacity="1" font-family="Aptos,Aptos_MSFontService,sans-serif" font-style="normal" font-variant="normal" font-weight="400" font-stretch="normal" font-size="73" text-anchor="start" direction="ltr" writing-mode="lr-tb" unicode-bidi="normal" text-decoration="none" transform="matrix(1 0 0 1 -2988.12 844)">City Bike Trip DF</text><path d="M-2308.5 1230C-2308.5 1255.13-2498.78 1275.5-2733.5 1275.5-2968.22 1275.5-3158.5 1255.13-3158.5 1230" stroke="#042433" stroke-width="6.875" stroke-linecap="butt" stroke-linejoin="miter" stroke-miterlimit="8" stroke-opacity="1" fill="none" fill-rule="evenodd"/><path d="M-3158.5 1230C-3158.5 1204.87-2968.22 1184.5-2733.5 1184.5-2498.78 1184.5-2308.5 1204.87-2308.5 1230L-2308.5 1412C-2308.5 1437.13-2498.78 1457.5-2733.5 1457.5-2968.22 1457.5-3158.5 1437.13-3158.5 1412Z" stroke="#042433" stroke-width="6.875" stroke-linecap="butt" stroke-linejoin="miter" stroke-miterlimit="8" stroke-opacity="1" fill="none" fill-rule="evenodd"/><text fill="#000000" fill-opacity="1" font-family="Aptos,Aptos_MSFontService,sans-serif" font-style="normal" font-variant="normal" font-weight="400" font-stretch="normal" font-size="73" text-anchor="start" direction="ltr" writing-mode="lr-tb" unicode-bidi="normal" text-decoration="none" transform="matrix(1 0 0 1 -2997.19 1367)">NYC Weather DF</text><rect x="-2078.5" y="878.5" width="720" height="306" stroke="#042433" stroke-width="6.875" stroke-linecap="butt" stroke-linejoin="miter" stroke-miterlimit="8" stroke-opacity="1" fill="none"/><text fill="#000000" fill-opacity="1" font-family="Aptos,Aptos_MSFontService,sans-serif" font-style="normal" font-variant="normal" font-weight="400" font-stretch="normal" font-size="73" text-anchor="start" direction="ltr" writing-mode="lr-tb" unicode-bidi="normal" text-decoration="none" transform="matrix(1 0 0 1 -1993.23 1055)">Organize schema</text><rect x="-1228.5" y="878.5" width="720" height="306" stroke="#042433" stroke-width="6.875" stroke-linecap="butt" stroke-linejoin="miter" stroke-miterlimit="8" stroke-opacity="1" fill="none"/><text fill="#000000" fill-opacity="1" font-family="Calibri,Calibri_MSFontService,sans-serif" font-style="normal" font-variant="normal" font-weight="400" font-stretch="normal" font-size="73" text-anchor="start" direction="ltr" writing-mode="lr-tb" unicode-bidi="normal" text-decoration="none" transform="matrix(1 0 0 1 -1005.08 1012)">Filter out </text><text fill="#000000" fill-opacity="1" font-family="Calibri,Calibri_MSFontService,sans-serif" font-style="normal" font-variant="normal" font-weight="400" font-stretch="normal" font-size="73" text-anchor="start" direction="ltr" writing-mode="lr-tb" unicode-bidi="normal" text-decoration="none" transform="matrix(1 0 0 1 -1086.32 1099)">abnormal data</text><rect x="-378.5" y="878.5" width="720" height="306" stroke="#042433" stroke-width="6.875" stroke-linecap="butt" stroke-linejoin="miter" stroke-miterlimit="8" stroke-opacity="1" fill="none"/><text fill="#000000" fill-opacity="1" font-family="Calibri,Calibri_MSFontService,sans-serif" font-style="normal" font-variant="normal" font-weight="400" font-stretch="normal" font-size="73" text-anchor="start" direction="ltr" writing-mode="lr-tb" unicode-bidi="normal" text-decoration="none" transform="matrix(1 0 0 1 -124.54 1012)">Handle </text><text fill="#000000" fill-opacity="1" font-family="Calibri,Calibri_MSFontService,sans-serif" font-style="normal" font-variant="normal" font-weight="400" font-stretch="normal" font-size="73" text-anchor="start" direction="ltr" writing-mode="lr-tb" unicode-bidi="normal" text-decoration="none" transform="matrix(1 0 0 1 -203.947 1099)">missing data</text><path d="M-2308.5 794.062-2190.06 794.062-2190.06 934.329-2193.5 930.892-2101.42 930.892-2101.42 937.767-2196.94 937.767-2196.94 797.5-2193.5 800.938-2308.5 800.938ZM-2106 920.579-2078.5 934.329-2106 948.079Z" fill="#000000" fill-rule="nonzero" fill-opacity="1"/><path d="M0-3.4375 118.437-3.4375 118.437 193.17 115 189.732 207.083 189.732 207.083 196.607 111.562 196.607 111.562 0 115 3.4375 0 3.4375ZM202.5 179.42 230 193.17 202.5 206.92Z" fill="#000000" fill-rule="nonzero" fill-opacity="1" transform="matrix(1 0 0 -1 -2308.5 1320.67)"/><path d="M-1358.5 931.063-1251.42 931.063-1251.42 937.938-1358.5 937.938ZM-1256 920.75-1228.5 934.501-1256 948.25Z" fill="#000000" fill-rule="nonzero" fill-opacity="1"/><path d="M-1358.5 1120.06-1251.42 1120.06-1251.42 1126.94-1358.5 1126.94ZM-1256 1109.75-1228.5 1123.5-1256 1137.25Z" fill="#000000" fill-rule="nonzero" fill-opacity="1"/><path d="M-508.5 931.063-401.416 931.063-401.416 937.938-508.5 937.938ZM-406 920.75-378.5 934.501-406 948.25Z" fill="#000000" fill-rule="nonzero" fill-opacity="1"/><path d="M-508.5 1115.06-401.416 1115.06-401.416 1121.94-508.5 1121.94ZM-406 1104.75-378.5 1118.5-406 1132.25Z" fill="#000000" fill-rule="nonzero" fill-opacity="1"/><rect x="-2132.5" y="659.5" width="2511" height="797" stroke="#042433" stroke-width="6.875" stroke-linecap="butt" stroke-linejoin="miter" stroke-miterlimit="8" stroke-dasharray="6.875 6.875" stroke-opacity="1" fill="none"/><text fill="#000000" fill-opacity="1" font-family="Aptos,Aptos_MSFontService,sans-serif" font-style="normal" font-variant="normal" font-weight="400" font-stretch="normal" font-size="83" text-anchor="start" direction="ltr" writing-mode="lr-tb" unicode-bidi="normal" text-decoration="none" transform="matrix(1 0 0 1 -1120.21 1418)">Data Cleaning</text><path d="M1428.5 648.167C1428.5 673.388 1238.22 693.833 1003.5 693.833 768.779 693.833 578.5 673.388 578.5 648.167" stroke="#042433" stroke-width="6.875" stroke-linecap="square" stroke-linejoin="miter" stroke-miterlimit="8" stroke-dasharray="20.625 6.875" stroke-opacity="1" fill="none" fill-rule="evenodd"/><path d="M578.5 648.167C578.5 622.946 768.779 602.5 1003.5 602.5 1238.22 602.5 1428.5 622.946 1428.5 648.167L1428.5 830.833C1428.5 856.054 1238.22 876.5 1003.5 876.5 768.779 876.5 578.5 856.054 578.5 830.833Z" stroke="#042433" stroke-width="6.875" stroke-linecap="square" stroke-linejoin="miter" stroke-miterlimit="8" stroke-dasharray="20.625 6.875" stroke-opacity="1" fill="none" fill-rule="evenodd"/><text fill="#000000" fill-opacity="1" font-family="Aptos,Aptos_MSFontService,sans-serif" font-style="normal" font-variant="normal" font-weight="400" font-stretch="normal" font-size="73" text-anchor="start" direction="ltr" writing-mode="lr-tb" unicode-bidi="normal" text-decoration="none" transform="matrix(1 0 0 1 752.002 785)">Cleaned Trip DF</text><path d="M1428.5 1282.17C1428.5 1307.39 1238.22 1327.83 1003.5 1327.83 768.779 1327.83 578.5 1307.39 578.5 1282.17" stroke="#042433" stroke-width="6.875" stroke-linecap="square" stroke-linejoin="miter" stroke-miterlimit="8" stroke-dasharray="20.625 6.875" stroke-opacity="1" fill="none" fill-rule="evenodd"/><path d="M578.5 1282.17C578.5 1256.95 768.779 1236.5 1003.5 1236.5 1238.22 1236.5 1428.5 1256.95 1428.5 1282.17L1428.5 1464.83C1428.5 1490.05 1238.22 1510.5 1003.5 1510.5 768.779 1510.5 578.5 1490.05 578.5 1464.83Z" stroke="#042433" stroke-width="6.875" stroke-linecap="square" stroke-linejoin="miter" stroke-miterlimit="8" stroke-dasharray="20.625 6.875" stroke-opacity="1" fill="none" fill-rule="evenodd"/><text fill="#000000" fill-opacity="1" font-family="Aptos,Aptos_MSFontService,sans-serif" font-style="normal" font-variant="normal" font-weight="400" font-stretch="normal" font-size="73" text-anchor="start" direction="ltr" writing-mode="lr-tb" unicode-bidi="normal" text-decoration="none" transform="matrix(1 0 0 1 675.964 1420)">Cleaned Weather DF</text><path d="M0-3.4375 121.915-3.4375 121.915 222.811 118.478 219.374 214.039 219.374 214.039 226.249 115.04 226.249 115.04 0 118.478 3.4375 0 3.4375ZM209.456 209.061 236.956 222.811 209.456 236.561Z" fill="#000000" fill-rule="nonzero" fill-opacity="1" transform="matrix(1 0 0 -1 341.5 962.311)"/><path d="M341.5 1147.06 463.537 1147.06 463.537 1373.31 460.1 1369.87 555.783 1369.87 555.783 1376.75 456.662 1376.75 456.662 1150.5 460.1 1153.94 341.5 1153.94ZM551.2 1359.56 578.7 1373.31 551.2 1387.06Z" fill="#000000" fill-rule="nonzero" fill-opacity="1"/><path d="M3332.5 653C3332.5 678.129 3142.22 698.5 2907.5 698.5 2672.78 698.5 2482.5 678.129 2482.5 653" stroke="#042433" stroke-width="6.875" stroke-linecap="square" stroke-linejoin="miter" stroke-miterlimit="8" stroke-dasharray="20.625 6.875" stroke-opacity="1" fill="none" fill-rule="evenodd"/><path d="M2482.5 653C2482.5 627.871 2672.78 607.5 2907.5 607.5 3142.22 607.5 3332.5 627.871 3332.5 653L3332.5 835C3332.5 860.129 3142.22 880.5 2907.5 880.5 2672.78 880.5 2482.5 860.129 2482.5 835Z" stroke="#042433" stroke-width="6.875" stroke-linecap="square" stroke-linejoin="miter" stroke-miterlimit="8" stroke-dasharray="20.625 6.875" stroke-opacity="1" fill="none" fill-rule="evenodd"/><text fill="#000000" fill-opacity="1" font-family="Aptos,Aptos_MSFontService,sans-serif" font-style="normal" font-variant="normal" font-weight="400" font-stretch="normal" font-size="73" text-anchor="start" direction="ltr" writing-mode="lr-tb" unicode-bidi="normal" text-decoration="none" transform="matrix(1 0 0 1 2667.64 790)">Bike Station DF</text><rect x="3434.5" y="591.5" width="720" height="305" stroke="#042433" stroke-width="6.875" stroke-linecap="butt" stroke-linejoin="miter" stroke-miterlimit="8" stroke-opacity="1" fill="none"/><text fill="#000000" fill-opacity="1" font-family="Calibri,Calibri_MSFontService,sans-serif" font-style="normal" font-variant="normal" font-weight="400" font-stretch="normal" font-size="73" text-anchor="start" direction="ltr" writing-mode="lr-tb" unicode-bidi="normal" text-decoration="none" transform="matrix(1 0 0 1 3615.02 724)">Cluster with</text><text fill="#000000" fill-opacity="1" font-family="Calibri,Calibri_MSFontService,sans-serif" font-style="normal" font-variant="normal" font-weight="400" font-stretch="normal" font-size="73" text-anchor="start" direction="ltr" writing-mode="lr-tb" unicode-bidi="normal" text-decoration="none" transform="matrix(1 0 0 1 3673.81 811)">KMeans</text><path d="M1.21574e-05-3.4375 79.1257-3.43722 79.1256 3.43778-1.21574e-05 3.4375ZM74.5424-13.7497 102.042 0.000360892 74.5423 13.7503Z" fill="#000000" fill-rule="nonzero" fill-opacity="1" transform="matrix(1 0 0 -1 3332.5 743.5)"/><rect x="1660.5" y="590.5" width="720" height="306" stroke="#042433" stroke-width="6.875" stroke-linecap="butt" stroke-linejoin="miter" stroke-miterlimit="8" stroke-opacity="1" fill="none"/><text fill="#000000" fill-opacity="1" font-family="Calibri,Calibri_MSFontService,sans-serif" font-style="normal" font-variant="normal" font-weight="400" font-stretch="normal" font-size="73" text-anchor="start" direction="ltr" writing-mode="lr-tb" unicode-bidi="normal" text-decoration="none" transform="matrix(1 0 0 1 1798.85 767)">Select &amp; Union</text><path d="M2380.52 740.063 2459.65 740.599 2459.6 747.474 2380.48 746.938ZM2455.14 730.256 2482.54 744.192 2454.95 757.755Z" fill="#000000" fill-rule="nonzero" fill-opacity="1"/><path d="M5103.5 498C5103.5 523.129 4913.44 543.5 4679 543.5 4444.56 543.5 4254.5 523.129 4254.5 498" stroke="#042433" stroke-width="6.875" stroke-linecap="butt" stroke-linejoin="miter" stroke-miterlimit="8" stroke-opacity="1" fill="none" fill-rule="evenodd"/><path d="M4254.5 498C4254.5 472.871 4444.56 452.5 4679 452.5 4913.44 452.5 5103.5 472.871 5103.5 498L5103.5 680C5103.5 705.129 4913.44 725.5 4679 725.5 4444.56 725.5 4254.5 705.129 4254.5 680Z" stroke="#042433" stroke-width="6.875" stroke-linecap="butt" stroke-linejoin="miter" stroke-miterlimit="8" stroke-opacity="1" fill="none" fill-rule="evenodd"/><text fill="#000000" fill-opacity="1" font-family="Aptos,Aptos_MSFontService,sans-serif" font-style="normal" font-variant="normal" font-weight="400" font-stretch="normal" font-size="73" text-anchor="start" direction="ltr" writing-mode="lr-tb" unicode-bidi="normal" text-decoration="none" transform="matrix(1 0 0 1 4427.85 635)">Station Zone DF</text><rect x="1659.5" y="-274.5" width="720" height="306" stroke="#042433" stroke-width="6.875" stroke-linecap="butt" stroke-linejoin="miter" stroke-miterlimit="8" stroke-opacity="1" fill="none"/><text fill="#000000" fill-opacity="1" font-family="Calibri,Calibri_MSFontService,sans-serif" font-style="normal" font-variant="normal" font-weight="400" font-stretch="normal" font-size="73" text-anchor="start" direction="ltr" writing-mode="lr-tb" unicode-bidi="normal" text-decoration="none" transform="matrix(1 0 0 1 1733.77 -141)">Group(</text><text fill="#000000" fill-opacity="1" font-family="Consolas,Consolas_MSFontService,sans-serif" font-style="normal" font-variant="normal" font-weight="400" font-stretch="normal" font-size="73" text-anchor="start" direction="ltr" writing-mode="lr-tb" unicode-bidi="normal" text-decoration="none" transform="matrix(1 0 0 1 1942.84 -141)">start_id</text><text fill="#000000" fill-opacity="1" font-family="Consolas,Consolas_MSFontService,sans-serif" font-style="normal" font-variant="normal" font-weight="400" font-stretch="normal" font-size="73" text-anchor="start" direction="ltr" writing-mode="lr-tb" unicode-bidi="normal" text-decoration="none" transform="matrix(1 0 0 1 2263.67 -141)">, </text><text fill="#000000" fill-opacity="1" font-family="Consolas,Consolas_MSFontService,sans-serif" font-style="normal" font-variant="normal" font-weight="400" font-stretch="normal" font-size="73" text-anchor="start" direction="ltr" writing-mode="lr-tb" unicode-bidi="normal" text-decoration="none" transform="matrix(1 0 0 1 1696.28 -54)">timestamp</text><text fill="#000000" fill-opacity="1" font-family="Calibri,Calibri_MSFontService,sans-serif" font-style="normal" font-variant="normal" font-weight="400" font-stretch="normal" font-size="73" text-anchor="start" direction="ltr" writing-mode="lr-tb" unicode-bidi="normal" text-decoration="none" transform="matrix(1 0 0 1 2057.22 -54)">) &amp; Count</text><path d="M3332.5-213C3332.5-187.871 3142.22-167.5 2907.5-167.5 2672.78-167.5 2482.5-187.871 2482.5-213" stroke="#042433" stroke-width="6.875" stroke-linecap="butt" stroke-linejoin="miter" stroke-miterlimit="8" stroke-dasharray="6.875 6.875" stroke-opacity="1" fill="none" fill-rule="evenodd"/><path d="M2482.5-213C2482.5-238.129 2672.78-258.5 2907.5-258.5 3142.22-258.5 3332.5-238.129 3332.5-213L3332.5-31.0001C3332.5-5.87112 3142.22 14.4999 2907.5 14.4999 2672.78 14.4999 2482.5-5.87112 2482.5-31.0001Z" stroke="#042433" stroke-width="6.875" stroke-linecap="butt" stroke-linejoin="miter" stroke-miterlimit="8" stroke-dasharray="6.875 6.875" stroke-opacity="1" fill="none" fill-rule="evenodd"/><text fill="#000000" fill-opacity="1" font-family="Aptos,Aptos_MSFontService,sans-serif" font-style="normal" font-variant="normal" font-weight="400" font-stretch="normal" font-size="73" text-anchor="start" direction="ltr" writing-mode="lr-tb" unicode-bidi="normal" text-decoration="none" transform="matrix(1 0 0 1 2598.58 -76)">Station Demand DF</text><path d="M3332.5 151C3332.5 176.129 3142.22 196.5 2907.5 196.5 2672.78 196.5 2482.5 176.129 2482.5 151" stroke="#042433" stroke-width="6.875" stroke-linecap="butt" stroke-linejoin="miter" stroke-miterlimit="8" stroke-dasharray="6.875 6.875" stroke-opacity="1" fill="none" fill-rule="evenodd"/><path d="M2482.5 151C2482.5 125.871 2672.78 105.5 2907.5 105.5 3142.22 105.5 3332.5 125.871 3332.5 151L3332.5 333C3332.5 358.129 3142.22 378.5 2907.5 378.5 2672.78 378.5 2482.5 358.129 2482.5 333Z" stroke="#042433" stroke-width="6.875" stroke-linecap="butt" stroke-linejoin="miter" stroke-miterlimit="8" stroke-dasharray="6.875 6.875" stroke-opacity="1" fill="none" fill-rule="evenodd"/><text fill="#000000" fill-opacity="1" font-family="Aptos,Aptos_MSFontService,sans-serif" font-style="normal" font-variant="normal" font-weight="400" font-stretch="normal" font-size="73" text-anchor="start" direction="ltr" writing-mode="lr-tb" unicode-bidi="normal" text-decoration="none" transform="matrix(1 0 0 1 2626.08 288)">Station Supply DF</text><rect x="3434.5" y="-95.5001" width="720" height="305" stroke="#042433" stroke-width="6.875" stroke-linecap="butt" stroke-linejoin="miter" stroke-miterlimit="8" stroke-opacity="1" fill="none"/><text fill="#000000" fill-opacity="1" font-family="Calibri,Calibri_MSFontService,sans-serif" font-style="normal" font-variant="normal" font-weight="400" font-stretch="normal" font-size="73" text-anchor="start" direction="ltr" writing-mode="lr-tb" unicode-bidi="normal" text-decoration="none" transform="matrix(1 0 0 1 3478.73 38)">Join(</text><text fill="#000000" fill-opacity="1" font-family="Consolas,Consolas_MSFontService,sans-serif" font-style="normal" font-variant="normal" font-weight="400" font-stretch="normal" font-size="73" text-anchor="start" direction="ltr" writing-mode="lr-tb" unicode-bidi="normal" text-decoration="none" transform="matrix(1 0 0 1 3618.52 38)">station_id</text><text fill="#000000" fill-opacity="1" font-family="Calibri,Calibri_MSFontService,sans-serif" font-style="normal" font-variant="normal" font-weight="400" font-stretch="normal" font-size="73" text-anchor="start" direction="ltr" writing-mode="lr-tb" unicode-bidi="normal" text-decoration="none" transform="matrix(1 0 0 1 4019.56 38)">) &amp; </text><text fill="#000000" fill-opacity="1" font-family="Calibri,Calibri_MSFontService,sans-serif" font-style="normal" font-variant="normal" font-weight="400" font-stretch="normal" font-size="73" text-anchor="start" direction="ltr" writing-mode="lr-tb" unicode-bidi="normal" text-decoration="none" transform="matrix(1 0 0 1 3520.23 125)">Group &amp; Agg(</text><text fill="#000000" fill-opacity="1" font-family="Consolas,Consolas_MSFontService,sans-serif" font-style="normal" font-variant="normal" font-weight="400" font-stretch="normal" font-size="73" text-anchor="start" direction="ltr" writing-mode="lr-tb" unicode-bidi="normal" text-decoration="none" transform="matrix(1 0 0 1 3924.21 125)">sum</text><text fill="#000000" fill-opacity="1" font-family="Calibri,Calibri_MSFontService,sans-serif" font-style="normal" font-variant="normal" font-weight="400" font-stretch="normal" font-size="73" text-anchor="start" direction="ltr" writing-mode="lr-tb" unicode-bidi="normal" text-decoration="none" transform="matrix(1 0 0 1 4044.52 125)">)</text><path d="M3332.5-124.937 3386.96-124.937 3386.96-45.0823 3383.52-48.5198 3411.63-48.5198 3411.63-41.6448 3380.08-41.6448 3380.08-121.5 3383.52-118.062 3332.5-118.062ZM3407.04-58.8323 3434.54-45.0823 3407.04-31.3323Z" fill="#000000" fill-rule="nonzero" fill-opacity="1"/><path d="M0-3.4375 54.4587-3.4375 54.4587 95.9512 51.0212 92.5137 79.1257 92.5137 79.1257 99.3887 47.5837 99.3887 47.5837 0 51.0212 3.4375 0 3.4375ZM74.5423 82.2012 102.042 95.9512 74.5423 109.701Z" fill="#000000" fill-rule="nonzero" fill-opacity="1" transform="matrix(1 0 0 -1 3332.5 241.451)"/><path d="M5106.5-227C5106.5-201.871 4916.44-181.5 4682-181.5 4447.56-181.5 4257.5-201.871 4257.5-227" stroke="#042433" stroke-width="6.875" stroke-linecap="butt" stroke-linejoin="miter" stroke-miterlimit="8" stroke-dasharray="6.875 6.875" stroke-opacity="1" fill="none" fill-rule="evenodd"/><path d="M4257.5-227C4257.5-252.129 4447.56-272.5 4682-272.5 4916.44-272.5 5106.5-252.129 5106.5-227L5106.5-45.0002C5106.5-19.8712 4916.44 0.499833 4682 0.499833 4447.56 0.499833 4257.5-19.8712 4257.5-45.0002Z" stroke="#042433" stroke-width="6.875" stroke-linecap="butt" stroke-linejoin="miter" stroke-miterlimit="8" stroke-dasharray="6.875 6.875" stroke-opacity="1" fill="none" fill-rule="evenodd"/><text fill="#000000" fill-opacity="1" font-family="Aptos,Aptos_MSFontService,sans-serif" font-style="normal" font-variant="normal" font-weight="400" font-stretch="normal" font-size="73" text-anchor="start" direction="ltr" writing-mode="lr-tb" unicode-bidi="normal" text-decoration="none" transform="matrix(1 0 0 1 4407.26 -90)">Zone Demand DF</text><path d="M5107.5 149.167C5107.5 174.388 4917.22 194.833 4682.5 194.833 4447.78 194.833 4257.5 174.388 4257.5 149.167" stroke="#042433" stroke-width="6.875" stroke-linecap="butt" stroke-linejoin="miter" stroke-miterlimit="8" stroke-dasharray="6.875 6.875" stroke-opacity="1" fill="none" fill-rule="evenodd"/><path d="M4257.5 149.167C4257.5 123.946 4447.78 103.5 4682.5 103.5 4917.22 103.5 5107.5 123.946 5107.5 149.167L5107.5 331.833C5107.5 357.054 4917.22 377.5 4682.5 377.5 4447.78 377.5 4257.5 357.054 4257.5 331.833Z" stroke="#042433" stroke-width="6.875" stroke-linecap="butt" stroke-linejoin="miter" stroke-miterlimit="8" stroke-dasharray="6.875 6.875" stroke-opacity="1" fill="none" fill-rule="evenodd"/><text fill="#000000" fill-opacity="1" font-family="Aptos,Aptos_MSFontService,sans-serif" font-style="normal" font-variant="normal" font-weight="400" font-stretch="normal" font-size="73" text-anchor="start" direction="ltr" writing-mode="lr-tb" unicode-bidi="normal" text-decoration="none" transform="matrix(1 0 0 1 4435.69 287)">Zone Supply DF</text><path d="M0-3.4375 53.5274-3.4375 53.5274 77.6132 50.0899 74.1757 77.2631 74.1757 77.2631 81.0507 46.6524 81.0507 46.6524 0 50.0899 3.4375 0 3.4375ZM72.6798 63.8632 100.18 77.6132 72.6798 91.3632Z" fill="#000000" fill-rule="nonzero" fill-opacity="1" transform="matrix(1 0 0 -1 4156.5 -57.8868)"/><path d="M4156.5 141.062 4210.49 141.062 4210.49 240.45 4207.06 237.013 4234.69 237.013 4234.69 243.888 4203.62 243.888 4203.62 144.5 4207.06 147.937 4156.5 147.937ZM4230.11 226.7 4257.61 240.45 4230.11 254.2Z" fill="#000000" fill-rule="nonzero" fill-opacity="1"/><rect x="2539.5" y="1220.5" width="720" height="306" stroke="#042433" stroke-width="6.875" stroke-linecap="butt" stroke-linejoin="miter" stroke-miterlimit="8" stroke-opacity="1" fill="none"/><text fill="#000000" fill-opacity="1" font-family="Calibri,Calibri_MSFontService,sans-serif" font-style="normal" font-variant="normal" font-weight="400" font-stretch="normal" font-size="73" text-anchor="start" direction="ltr" writing-mode="lr-tb" unicode-bidi="normal" text-decoration="none" transform="matrix(1 0 0 1 2752.23 1397)">Cross Join</text><path d="M1428.5 1370.06 2517.14 1370.06 2517.14 1376.94 1428.5 1376.94ZM2512.56 1359.75 2540.06 1373.5 2512.56 1387.25Z" fill="#000000" fill-rule="nonzero" fill-opacity="1"/><path d="M1428.56 736.063 1637.75 739.721 1637.63 746.594 1428.44 742.937ZM1633.35 729.329 1660.61 743.558 1632.87 756.825Z" fill="#000000" fill-rule="nonzero" fill-opacity="1"/><path d="M0-3.4375 119.025-3.4375 119.025 860.361 115.587 856.923 208.258 856.923 208.258 863.798 112.15 863.798 112.15 0 115.587 3.4375 0 3.4375ZM203.675 846.611 231.175 860.361 203.675 874.111Z" fill="#000000" fill-rule="nonzero" fill-opacity="1" transform="matrix(1 0 0 -1 1428.5 738.861)"/><path d="M5096.5 1282C5096.5 1307.13 4906.22 1327.5 4671.5 1327.5 4436.78 1327.5 4246.5 1307.13 4246.5 1282" stroke="#042433" stroke-width="6.875" stroke-linecap="square" stroke-linejoin="miter" stroke-miterlimit="8" stroke-dasharray="20.625 6.875" stroke-opacity="1" fill="none" fill-rule="evenodd"/><path d="M4246.5 1282C4246.5 1256.87 4436.78 1236.5 4671.5 1236.5 4906.22 1236.5 5096.5 1256.87 5096.5 1282L5096.5 1464C5096.5 1489.13 4906.22 1509.5 4671.5 1509.5 4436.78 1509.5 4246.5 1489.13 4246.5 1464Z" stroke="#042433" stroke-width="6.875" stroke-linecap="square" stroke-linejoin="miter" stroke-miterlimit="8" stroke-dasharray="20.625 6.875" stroke-opacity="1" fill="none" fill-rule="evenodd"/><text fill="#000000" fill-opacity="1" font-family="Aptos,Aptos_MSFontService,sans-serif" font-style="normal" font-variant="normal" font-weight="400" font-stretch="normal" font-size="73" text-anchor="start" direction="ltr" writing-mode="lr-tb" unicode-bidi="normal" text-decoration="none" transform="matrix(1 0 0 1 4368.37 1419)">Zone Weather Data</text><path d="M0.00258143-3.4375 964.187-2.71343 964.182 4.16156-0.00258143 3.4375ZM959.611-13.0294 987.1 0.741273 959.59 14.4706Z" fill="#000000" fill-rule="nonzero" fill-opacity="1" transform="matrix(1 0 0 -1 3259.5 1373.24)"/><path d="M5103.5 805C5103.5 830.129 4913.44 850.5 4679 850.5 4444.56 850.5 4254.5 830.129 4254.5 805" stroke="#042433" stroke-width="6.875" stroke-linecap="butt" stroke-linejoin="miter" stroke-miterlimit="8" stroke-opacity="1" fill="none" fill-rule="evenodd"/><path d="M4254.5 805C4254.5 779.871 4444.56 759.5 4679 759.5 4913.44 759.5 5103.5 779.871 5103.5 805L5103.5 987C5103.5 1012.13 4913.44 1032.5 4679 1032.5 4444.56 1032.5 4254.5 1012.13 4254.5 987Z" stroke="#042433" stroke-width="6.875" stroke-linecap="butt" stroke-linejoin="miter" stroke-miterlimit="8" stroke-opacity="1" fill="none" fill-rule="evenodd"/><text fill="#000000" fill-opacity="1" font-family="Aptos,Aptos_MSFontService,sans-serif" font-style="normal" font-variant="normal" font-weight="400" font-stretch="normal" font-size="73" text-anchor="start" direction="ltr" writing-mode="lr-tb" unicode-bidi="normal" text-decoration="none" transform="matrix(1 0 0 1 4547.98 942)">Zone DF</text><path d="M0-3.4375 53.5275-3.4375 53.5275 155.025 50.09 151.588 77.2631 151.588 77.2631 158.463 46.6525 158.463 46.6525 0 50.09 3.4375 0 3.4375ZM72.6798 141.275 100.18 155.025 72.6798 168.775Z" fill="#000000" fill-rule="nonzero" fill-opacity="1" transform="matrix(1 0 0 -1 4154.5 743.525)"/><path d="M4154.5 740.063 4208.03 740.063 4208.03 895.594 4204.59 892.157 4231.76 892.157 4231.76 899.032 4201.15 899.032 4201.15 743.5 4204.59 746.938 4154.5 746.938ZM4227.18 881.844 4254.68 895.594 4227.18 909.344Z" fill="#000000" fill-rule="nonzero" fill-opacity="1"/><path d="M0-3.4375 44.7102-3.4375 44.7102 885.058 41.2727 881.62 219.296 881.62 219.296 888.495 37.8352 888.495 37.8352 0 41.2727 3.4375 0 3.4375ZM214.712 871.308 242.212 885.058 214.712 898.808Z" fill="#000000" fill-rule="nonzero" fill-opacity="1" transform="matrix(-1.83697e-16 -1 -1 1.83697e-16 4679.56 451.712)"/><path d="M4682.38 1032.5 4682.38 1129.9 2899.5 1129.9 2902.94 1126.46 2902.94 1197.5 2896.06 1197.5 2896.06 1123.02 4678.94 1123.02 4675.51 1126.46 4675.51 1032.5ZM2913.25 1192.92 2899.5 1220.42 2885.75 1192.92Z" fill="#000000" fill-rule="nonzero" fill-opacity="1"/><rect x="1658.5" y="90.4999" width="720" height="305" stroke="#042433" stroke-width="6.875" stroke-linecap="butt" stroke-linejoin="miter" stroke-miterlimit="8" stroke-opacity="1" fill="none"/><text fill="#000000" fill-opacity="1" font-family="Calibri,Calibri_MSFontService,sans-serif" font-style="normal" font-variant="normal" font-weight="400" font-stretch="normal" font-size="73" text-anchor="start" direction="ltr" writing-mode="lr-tb" unicode-bidi="normal" text-decoration="none" transform="matrix(1 0 0 1 1772.94 223)">Group(</text><text fill="#000000" fill-opacity="1" font-family="Consolas,Consolas_MSFontService,sans-serif" font-style="normal" font-variant="normal" font-weight="400" font-stretch="normal" font-size="73" text-anchor="start" direction="ltr" writing-mode="lr-tb" unicode-bidi="normal" text-decoration="none" transform="matrix(1 0 0 1 1982.01 223)">end_id</text><text fill="#000000" fill-opacity="1" font-family="Consolas,Consolas_MSFontService,sans-serif" font-style="normal" font-variant="normal" font-weight="400" font-stretch="normal" font-size="73" text-anchor="start" direction="ltr" writing-mode="lr-tb" unicode-bidi="normal" text-decoration="none" transform="matrix(1 0 0 1 2222.64 223)">, </text><text fill="#000000" fill-opacity="1" font-family="Consolas,Consolas_MSFontService,sans-serif" font-style="normal" font-variant="normal" font-weight="400" font-stretch="normal" font-size="73" text-anchor="start" direction="ltr" writing-mode="lr-tb" unicode-bidi="normal" text-decoration="none" transform="matrix(1 0 0 1 1695.35 310)">timestamp</text><text fill="#000000" fill-opacity="1" font-family="Calibri,Calibri_MSFontService,sans-serif" font-style="normal" font-variant="normal" font-weight="400" font-stretch="normal" font-size="73" text-anchor="start" direction="ltr" writing-mode="lr-tb" unicode-bidi="normal" text-decoration="none" transform="matrix(1 0 0 1 2056.29 310)">) &amp; Count</text><path d="M0-3.4375 118.56-3.4375 118.56 496.22 115.122 492.782 207.327 492.782 207.327 499.657 111.685 499.657 111.685 0 115.122 3.4375 0 3.4375ZM202.744 482.47 230.244 496.22 202.744 509.97Z" fill="#000000" fill-rule="nonzero" fill-opacity="1" transform="matrix(1 0 0 -1 1428.5 738.72)"/><path d="M0.026865-3.43739 80.0843-2.81171 80.0306 4.06308-0.026865 3.43739ZM75.5817-13.1597 102.973 0.80479 75.3668 14.3394Z" fill="#000000" fill-rule="nonzero" fill-opacity="1" transform="matrix(1 0 0 -1 2379.5 -120.695)"/><path d="M0.0361985-3.43731 81.0253-2.58441 80.9529 4.29021-0.0361985 3.43731ZM76.5508-12.9446 103.905 1.09423 76.2613 14.5539Z" fill="#000000" fill-rule="nonzero" fill-opacity="1" transform="matrix(1 0 0 -1 2378.5 242.594)"/><rect x="5204.5" y="590.5" width="720" height="306" stroke="#042433" stroke-width="6.875" stroke-linecap="butt" stroke-linejoin="miter" stroke-miterlimit="8" stroke-opacity="1" fill="none"/><text fill="#000000" fill-opacity="1" font-family="Calibri,Calibri_MSFontService,sans-serif" font-style="normal" font-variant="normal" font-weight="400" font-stretch="normal" font-size="73" text-anchor="start" direction="ltr" writing-mode="lr-tb" unicode-bidi="normal" text-decoration="none" transform="matrix(1 0 0 1 5367.95 724)">Join(</text><text fill="#000000" fill-opacity="1" font-family="Calibri,Calibri_MSFontService,sans-serif" font-style="normal" font-variant="normal" font-weight="400" font-stretch="normal" font-size="73" text-anchor="start" direction="ltr" writing-mode="lr-tb" unicode-bidi="normal" text-decoration="none" transform="matrix(1 0 0 1 5507.74 724)">zone_id</text><text fill="#000000" fill-opacity="1" font-family="Calibri,Calibri_MSFontService,sans-serif" font-style="normal" font-variant="normal" font-weight="400" font-stretch="normal" font-size="73" text-anchor="start" direction="ltr" writing-mode="lr-tb" unicode-bidi="normal" text-decoration="none" transform="matrix(1 0 0 1 5741.04 724)">, </text><text fill="#000000" fill-opacity="1" font-family="Calibri,Calibri_MSFontService,sans-serif" font-style="normal" font-variant="normal" font-weight="400" font-stretch="normal" font-size="73" text-anchor="start" direction="ltr" writing-mode="lr-tb" unicode-bidi="normal" text-decoration="none" transform="matrix(1 0 0 1 5392.66 811)">timestamp)</text><path d="M0-3.4375 471.083-3.4375 471.083 453.926 464.208 453.926 464.208 0 467.645 3.4375 0 3.4375ZM481.395 449.342 467.645 476.842 453.895 449.342Z" fill="#000000" fill-rule="nonzero" fill-opacity="1" transform="matrix(1 0 0 -1 5096.5 1373.34)"/><path d="M5107.5 237.063 5567.39 237.063 5567.39 567.536 5560.52 567.536 5560.52 240.5 5563.95 243.938 5107.5 243.938ZM5577.7 562.953 5563.95 590.453 5550.2 562.953Z" fill="#0E2841" fill-rule="nonzero" fill-opacity="1"/><path d="M5106.5-138.937 5567.32-138.937 5567.32 567.863 5560.45 567.863 5560.45-135.5 5563.89-132.062 5106.5-132.062ZM5577.64 563.28 5563.89 590.78 5550.14 563.28Z" fill="#000000" fill-rule="nonzero" fill-opacity="1"/><path d="M6877.5 653C6877.5 678.129 6687.44 698.5 6453 698.5 6218.56 698.5 6028.5 678.129 6028.5 653" stroke="#042433" stroke-width="6.875" stroke-linecap="butt" stroke-linejoin="miter" stroke-miterlimit="8" stroke-opacity="1" fill="none" fill-rule="evenodd"/><path d="M6028.5 653C6028.5 627.871 6218.56 607.5 6453 607.5 6687.44 607.5 6877.5 627.871 6877.5 653L6877.5 835C6877.5 860.129 6687.44 880.5 6453 880.5 6218.56 880.5 6028.5 860.129 6028.5 835Z" stroke="#042433" stroke-width="6.875" stroke-linecap="butt" stroke-linejoin="miter" stroke-miterlimit="8" stroke-opacity="1" fill="none" fill-rule="evenodd"/><text fill="#000000" fill-opacity="1" font-family="Aptos,Aptos_MSFontService,sans-serif" font-style="normal" font-variant="normal" font-weight="400" font-stretch="normal" font-size="73" text-anchor="start" direction="ltr" writing-mode="lr-tb" unicode-bidi="normal" text-decoration="none" transform="matrix(1 0 0 1 6134.17 790)">Final Time Series DF</text><path d="M5924.53 740.063 6005.52 740.798 6005.46 747.672 5924.47 746.937ZM6001.03 730.444 6028.41 744.443 6000.78 757.943Z" fill="#000000" fill-rule="nonzero" fill-opacity="1"/><rect x="1495.5" y="-335.5" width="4478" height="2027" stroke="#042433" stroke-width="6.875" stroke-linecap="butt" stroke-linejoin="miter" stroke-miterlimit="8" stroke-dasharray="6.875 6.875" stroke-opacity="1" fill="none"/><text fill="#000000" fill-opacity="1" font-family="Aptos,Aptos_MSFontService,sans-serif" font-style="normal" font-variant="normal" font-weight="400" font-stretch="normal" font-size="83" text-anchor="start" direction="ltr" writing-mode="lr-tb" unicode-bidi="normal" text-decoration="none" transform="matrix(1 0 0 1 3530.23 1627)">Data Enriching</text><rect x="3433.5" y="2135.5" width="720" height="306" stroke="#042433" stroke-width="6.875" stroke-linecap="butt" stroke-linejoin="miter" stroke-miterlimit="8" stroke-opacity="1" fill="none"/><text fill="#000000" fill-opacity="1" font-family="Calibri,Calibri_MSFontService,sans-serif" font-style="normal" font-variant="normal" font-weight="400" font-stretch="normal" font-size="73" text-anchor="start" direction="ltr" writing-mode="lr-tb" unicode-bidi="normal" text-decoration="none" transform="matrix(1 0 0 1 3552.85 2312)">Train &amp; Evaluate</text><path d="M2353.5 2146.75 2460.75 2039.5 3073.5 2039.5 3073.5 2361.25 2966.25 2468.5 2353.5 2468.5ZM2353.5 2146.75 2966.25 2146.75 3073.5 2039.5M2966.25 2146.75 2966.25 2468.5" stroke="#0F9ED5" stroke-width="4.58333" stroke-linecap="butt" stroke-linejoin="miter" stroke-miterlimit="8" stroke-opacity="1" fill="none" fill-rule="evenodd"/><text fill="#000000" fill-opacity="1" font-family="Aptos,Aptos_MSFontService,sans-serif" font-style="normal" font-variant="normal" font-weight="400" font-stretch="normal" font-size="73" text-anchor="start" direction="ltr" writing-mode="lr-tb" unicode-bidi="normal" text-decoration="none" transform="matrix(1 0 0 1 2520.5 2331)">XGBoost</text><path d="M6456.77 880.5 6456.77 1958.59 3793.5 1958.59 3796.94 1955.15 3796.94 2112.24 3790.06 2112.24 3790.06 1951.71 6453.33 1951.71 6449.89 1955.15 6449.89 880.5ZM3807.25 2107.66 3793.5 2135.16 3779.75 2107.66Z" fill="#000000" fill-rule="nonzero" fill-opacity="1"/><path d="M3076.5 2285.06 3410.43 2285.06 3410.43 2291.94 3076.5 2291.94ZM3405.85 2274.75 3433.35 2288.5 3405.85 2302.25Z" fill="#000000" fill-rule="nonzero" fill-opacity="1"/><path d="M4511.5 2130 4619 2022.5 5231.5 2022.5 5231.5 2345 5124 2452.5 4511.5 2452.5ZM4511.5 2130 5124 2130 5231.5 2022.5M5124 2130 5124 2452.5" stroke="#4EA72E" stroke-width="4.58333" stroke-linecap="butt" stroke-linejoin="miter" stroke-miterlimit="8" stroke-opacity="1" fill="none" fill-rule="evenodd"/><text fill="#000000" fill-opacity="1" font-family="Aptos,Aptos_MSFontService,sans-serif" font-style="normal" font-variant="normal" font-weight="400" font-stretch="normal" font-size="73" text-anchor="start" direction="ltr" writing-mode="lr-tb" unicode-bidi="normal" text-decoration="none" transform="matrix(1 0 0 1 4549.22 2315)">Prediction Model</text><path d="M4153.53 2285.06 4488.75 2287.56 4488.7 2294.43 4153.47 2291.94ZM4484.24 2277.21 4511.64 2291.16 4484.04 2304.71Z" fill="#000000" fill-rule="nonzero" fill-opacity="1"/><rect x="1495.5" y="1817.5" width="4478" height="822" stroke="#042433" stroke-width="6.875" stroke-linecap="butt" stroke-linejoin="miter" stroke-miterlimit="8" stroke-dasharray="6.875 6.875" stroke-opacity="1" fill="none"/><text fill="#000000" fill-opacity="1" font-family="Aptos,Aptos_MSFontService,sans-serif" font-style="normal" font-variant="normal" font-weight="400" font-stretch="normal" font-size="83" text-anchor="start" direction="ltr" writing-mode="lr-tb" unicode-bidi="normal" text-decoration="none" transform="matrix(1 0 0 1 3637.44 2577)">Learning</text><path d="M-1228.5 1931.17C-1228.5 1956.39-1418.78 1976.83-1653.5 1976.83-1888.22 1976.83-2078.5 1956.39-2078.5 1931.17" stroke="#042433" stroke-width="6.875" stroke-linecap="butt" stroke-linejoin="miter" stroke-miterlimit="8" stroke-opacity="1" fill="none" fill-rule="evenodd"/><path d="M-2078.5 1931.17C-2078.5 1905.95-1888.22 1885.5-1653.5 1885.5-1418.78 1885.5-1228.5 1905.95-1228.5 1931.17L-1228.5 2113.83C-1228.5 2139.05-1418.78 2159.5-1653.5 2159.5-1888.22 2159.5-2078.5 2139.05-2078.5 2113.83Z" stroke="#042433" stroke-width="6.875" stroke-linecap="butt" stroke-linejoin="miter" stroke-miterlimit="8" stroke-opacity="1" fill="none" fill-rule="evenodd"/><path d="M-1228.5 2324.17C-1228.5 2349.39-1418.78 2369.83-1653.5 2369.83-1888.22 2369.83-2078.5 2349.39-2078.5 2324.17" stroke="#042433" stroke-width="6.875" stroke-linecap="square" stroke-linejoin="miter" stroke-miterlimit="8" stroke-dasharray="20.625 6.875" stroke-opacity="1" fill="none" fill-rule="evenodd"/><path d="M-2078.5 2324.17C-2078.5 2298.95-1888.22 2278.5-1653.5 2278.5-1418.78 2278.5-1228.5 2298.95-1228.5 2324.17L-1228.5 2506.83C-1228.5 2532.05-1418.78 2552.5-1653.5 2552.5-1888.22 2552.5-2078.5 2532.05-2078.5 2506.83Z" stroke="#042433" stroke-width="6.875" stroke-linecap="square" stroke-linejoin="miter" stroke-miterlimit="8" stroke-dasharray="20.625 6.875" stroke-opacity="1" fill="none" fill-rule="evenodd"/><text fill="#000000" fill-opacity="1" font-family="Aptos,Aptos_MSFontService,sans-serif" font-style="normal" font-variant="normal" font-weight="400" font-stretch="normal" font-size="83" text-anchor="start" direction="ltr" writing-mode="lr-tb" unicode-bidi="normal" text-decoration="none" transform="matrix(1 0 0 1 -1146.04 2046)">In HDFS</text><text fill="#000000" fill-opacity="1" font-family="Aptos,Aptos_MSFontService,sans-serif" font-style="normal" font-variant="normal" font-weight="400" font-stretch="normal" font-size="83" text-anchor="start" direction="ltr" writing-mode="lr-tb" unicode-bidi="normal" text-decoration="none" transform="matrix(1 0 0 1 -1164.36 2441)">Temporary</text></g></g></svg>