<svg width="10124" height="2992" xmlns="http://www.w3.org/2000/svg" xmlns:xlink="http://www.w3.org/1999/xlink" xml:space="preserve" overflow="hidden"><defs><linearGradient x1="3119.5" y1="2054.5" x2="3119.5" y2="2484.5" gradientUnits="userSpaceOnUse" spreadMethod="reflect" id="fill0"><stop offset="0" stop-color="#9CCFF5" stop-opacity="1"/><stop offset="0.5" stop-color="#8FC4EB" stop-opacity="1"/><stop offset="1" stop-color="#79BEED" stop-opacity="1"/></linearGradient><linearGradient x1="3119.5" y1="2054.5" x2="3119.5" y2="2484.5" gradientUnits="userSpaceOnUse" spreadMethod="reflect" id="fill1"><stop offset="0" stop-color="#7DA6C5" stop-opacity="1"/><stop offset="0.5" stop-color="#739EBD" stop-opacity="1"/><stop offset="1" stop-color="#6199BF" stop-opacity="1"/></linearGradient><linearGradient x1="3119.5" y1="2054.5" x2="3119.5" y2="2484.5" gradientUnits="userSpaceOnUse" spreadMethod="reflect" id="fill2"><stop offset="0" stop-color="#AFD8F7" stop-opacity="1"/><stop offset="0.5" stop-color="#A5D0EF" stop-opacity="1"/><stop offset="1" stop-color="#93CBF1" stop-opacity="1"/></linearGradient><linearGradient x1="5277.5" y1="2038.5" x2="5277.5" y2="2467.5" gradientUnits="userSpaceOnUse" spreadMethod="reflect" id="fill3"><stop offset="0" stop-color="#A8D5A0" stop-opacity="1"/><stop offset="0.5" stop-color="#9BCA93" stop-opacity="1"/><stop offset="1" stop-color="#8AC67E" stop-opacity="1"/></linearGradient><linearGradient x1="5277.5" y1="2038.5" x2="5277.5" y2="2467.5" gradientUnits="userSpaceOnUse" spreadMethod="reflect" id="fill4"><stop offset="0" stop-color="#87AB81" stop-opacity="1"/><stop offset="0.5" stop-color="#7DA276" stop-opacity="1"/><stop offset="1" stop-color="#6F9F65" stop-opacity="1"/></linearGradient><linearGradient x1="5277.5" y1="2038.5" x2="5277.5" y2="2467.5" gradientUnits="userSpaceOnUse" spreadMethod="reflect" id="fill5"><stop offset="0" stop-color="#B9DDB3" stop-opacity="1"/><stop offset="0.5" stop-color="#AFD4A8" stop-opacity="1"/><stop offset="1" stop-color="#A1D197" stop-opacity="1"/></linearGradient></defs><g transform="translate(2759 325)"><g><rect x="-2752" y="-321" width="10114" height="2975" fill="#FFFFFF" fill-opacity="1"/><path d="M-1901.5 722.167C-1901.5 747.388-2091.78 767.833-2326.5 767.833-2561.22 767.833-2751.5 747.388-2751.5 722.167" stroke="#042433" stroke-width="6.875" stroke-linecap="butt" stroke-linejoin="miter" stroke-miterlimit="8" stroke-opacity="1" fill="none" fill-rule="evenodd"/><path d="M-2751.5 722.167C-2751.5 696.946-2561.22 676.5-2326.5 676.5-2091.78 676.5-1901.5 696.946-1901.5 722.167L-1901.5 904.833C-1901.5 930.054-2091.78 950.5-2326.5 950.5-2561.22 950.5-2751.5 930.054-2751.5 904.833Z" stroke="#042433" stroke-width="6.875" stroke-linecap="butt" stroke-linejoin="miter" stroke-miterlimit="8" stroke-opacity="1" fill="none" fill-rule="evenodd"/><text fill="#000000" fill-opacity="1" font-family="Aptos,Aptos_MSFontService,sans-serif" font-style="normal" font-variant="normal" font-weight="400" font-stretch="normal" font-size="73" text-anchor="start" direction="ltr" writing-mode="lr-tb" unicode-bidi="normal" text-decoration="none" transform="matrix(1 0 0 1 -2581.38 860)">City Bike Trip DF</text><path d="M-1901.5 1245.17C-1901.5 1270.39-2091.78 1290.83-2326.5 1290.83-2561.22 1290.83-2751.5 1270.39-2751.5 1245.17" stroke="#042433" stroke-width="6.875" stroke-linecap="butt" stroke-linejoin="miter" stroke-miterlimit="8" stroke-opacity="1" fill="none" fill-rule="evenodd"/><path d="M-2751.5 1245.17C-2751.5 1219.95-2561.22 1199.5-2326.5 1199.5-2091.78 1199.5-1901.5 1219.95-1901.5 1245.17L-1901.5 1427.83C-1901.5 1453.05-2091.78 1473.5-2326.5 1473.5-2561.22 1473.5-2751.5 1453.05-2751.5 1427.83Z" stroke="#042433" stroke-width="6.875" stroke-linecap="butt" stroke-linejoin="miter" stroke-miterlimit="8" stroke-opacity="1" fill="none" fill-rule="evenodd"/><text fill="#000000" fill-opacity="1" font-family="Aptos,Aptos_MSFontService,sans-serif" font-style="normal" font-variant="normal" font-weight="400" font-stretch="normal" font-size="73" text-anchor="start" direction="ltr" writing-mode="lr-tb" unicode-bidi="normal" text-decoration="none" transform="matrix(1 0 0 1 -2590.44 1383)">NYC Weather DF</text><rect x="-1671.5" y="893.5" width="720" height="306" stroke="#042433" stroke-width="6.875" stroke-linecap="butt" stroke-linejoin="miter" stroke-miterlimit="8" stroke-opacity="1" fill="none"/><text fill="#000000" fill-opacity="1" font-family="Aptos,Aptos_MSFontService,sans-serif" font-style="normal" font-variant="normal" font-weight="400" font-stretch="normal" font-size="73" text-anchor="start" direction="ltr" writing-mode="lr-tb" unicode-bidi="normal" text-decoration="none" transform="matrix(1 0 0 1 -1586.49 1070)">Organize schema</text><rect x="-821.5" y="893.5" width="720" height="306" stroke="#042433" stroke-width="6.875" stroke-linecap="butt" stroke-linejoin="miter" stroke-miterlimit="8" stroke-opacity="1" fill="none"/><text fill="#000000" fill-opacity="1" font-family="Calibri,Calibri_MSFontService,sans-serif" font-style="normal" font-variant="normal" font-weight="400" font-stretch="normal" font-size="73" text-anchor="start" direction="ltr" writing-mode="lr-tb" unicode-bidi="normal" text-decoration="none" transform="matrix(1 0 0 1 -598.333 1027)">Filter out </text><text fill="#000000" fill-opacity="1" font-family="Calibri,Calibri_MSFontService,sans-serif" font-style="normal" font-variant="normal" font-weight="400" font-stretch="normal" font-size="73" text-anchor="start" direction="ltr" writing-mode="lr-tb" unicode-bidi="normal" text-decoration="none" transform="matrix(1 0 0 1 -679.572 1114)">abnormal data</text><rect x="28.5" y="893.5" width="720" height="306" stroke="#042433" stroke-width="6.875" stroke-linecap="butt" stroke-linejoin="miter" stroke-miterlimit="8" stroke-opacity="1" fill="none"/><text fill="#000000" fill-opacity="1" font-family="Calibri,Calibri_MSFontService,sans-serif" font-style="normal" font-variant="normal" font-weight="400" font-stretch="normal" font-size="73" text-anchor="start" direction="ltr" writing-mode="lr-tb" unicode-bidi="normal" text-decoration="none" transform="matrix(1 0 0 1 282.204 1027)">Handle </text><text fill="#000000" fill-opacity="1" font-family="Calibri,Calibri_MSFontService,sans-serif" font-style="normal" font-variant="normal" font-weight="400" font-stretch="normal" font-size="73" text-anchor="start" direction="ltr" writing-mode="lr-tb" unicode-bidi="normal" text-decoration="none" transform="matrix(1 0 0 1 202.798 1114)">missing data</text><path d="M-1901.5 810.063-1783.06 810.063-1783.06 950.329-1786.5 946.892-1694.42 946.892-1694.42 953.767-1789.94 953.767-1789.94 813.5-1786.5 816.938-1901.5 816.938ZM-1699 936.579-1671.5 950.329-1699 964.079Z" fill="#000000" fill-rule="nonzero" fill-opacity="1"/><path d="M0-3.4375 118.437-3.4375 118.437 193.17 115 189.732 207.083 189.732 207.083 196.607 111.562 196.607 111.562 0 115 3.4375 0 3.4375ZM202.5 179.42 230 193.17 202.5 206.92Z" fill="#000000" fill-rule="nonzero" fill-opacity="1" transform="matrix(1 0 0 -1 -1901.5 1336.67)"/><path d="M-951.5 947.062-844.416 947.063-844.416 953.938-951.5 953.937ZM-849 936.75-821.5 950.5-849 964.25Z" fill="#000000" fill-rule="nonzero" fill-opacity="1"/><path d="M-951.5 1135.06-844.416 1135.06-844.416 1141.94-951.5 1141.94ZM-849 1124.75-821.5 1138.5-849 1152.25Z" fill="#000000" fill-rule="nonzero" fill-opacity="1"/><path d="M-101.5 947.062 5.58376 947.063 5.58374 953.938-101.5 953.937ZM1.00044 936.75 28.5004 950.5 1.00035 964.25Z" fill="#000000" fill-rule="nonzero" fill-opacity="1"/><path d="M-101.5 1131.06 5.58376 1131.06 5.58374 1137.94-101.5 1137.94ZM1.00044 1120.75 28.5004 1134.5 1.00035 1148.25Z" fill="#000000" fill-rule="nonzero" fill-opacity="1"/><rect x="-1725.5" y="675.5" width="2510" height="796" stroke="#042433" stroke-width="6.875" stroke-linecap="butt" stroke-linejoin="miter" stroke-miterlimit="8" stroke-dasharray="6.875 6.875" stroke-opacity="1" fill="none"/><text fill="#000000" fill-opacity="1" font-family="Aptos,Aptos_MSFontService,sans-serif" font-style="normal" font-variant="normal" font-weight="400" font-stretch="normal" font-size="83" text-anchor="start" direction="ltr" writing-mode="lr-tb" unicode-bidi="normal" text-decoration="none" transform="matrix(1 0 0 1 -713.468 1433)">Data Cleaning</text><path d="M1834.5 663.167C1834.5 688.388 1644.44 708.833 1410 708.833 1175.56 708.833 985.5 688.388 985.5 663.167" stroke="#042433" stroke-width="6.875" stroke-linecap="square" stroke-linejoin="miter" stroke-miterlimit="8" stroke-dasharray="20.625 6.875" stroke-opacity="1" fill="none" fill-rule="evenodd"/><path d="M985.5 663.167C985.5 637.946 1175.56 617.5 1410 617.5 1644.44 617.5 1834.5 637.946 1834.5 663.167L1834.5 845.833C1834.5 871.054 1644.44 891.5 1410 891.5 1175.56 891.5 985.5 871.054 985.5 845.833Z" stroke="#042433" stroke-width="6.875" stroke-linecap="square" stroke-linejoin="miter" stroke-miterlimit="8" stroke-dasharray="20.625 6.875" stroke-opacity="1" fill="none" fill-rule="evenodd"/><text fill="#000000" fill-opacity="1" font-family="Aptos,Aptos_MSFontService,sans-serif" font-style="normal" font-variant="normal" font-weight="400" font-stretch="normal" font-size="73" text-anchor="start" direction="ltr" writing-mode="lr-tb" unicode-bidi="normal" text-decoration="none" transform="matrix(1 0 0 1 1158.75 801)">Cleaned Trip DF</text><path d="M1834.5 1298C1834.5 1323.13 1644.44 1343.5 1410 1343.5 1175.56 1343.5 985.5 1323.13 985.5 1298" stroke="#042433" stroke-width="6.875" stroke-linecap="square" stroke-linejoin="miter" stroke-miterlimit="8" stroke-dasharray="20.625 6.875" stroke-opacity="1" fill="none" fill-rule="evenodd"/><path d="M985.5 1298C985.5 1272.87 1175.56 1252.5 1410 1252.5 1644.44 1252.5 1834.5 1272.87 1834.5 1298L1834.5 1480C1834.5 1505.13 1644.44 1525.5 1410 1525.5 1175.56 1525.5 985.5 1505.13 985.5 1480Z" stroke="#042433" stroke-width="6.875" stroke-linecap="square" stroke-linejoin="miter" stroke-miterlimit="8" stroke-dasharray="20.625 6.875" stroke-opacity="1" fill="none" fill-rule="evenodd"/><text fill="#000000" fill-opacity="1" font-family="Aptos,Aptos_MSFontService,sans-serif" font-style="normal" font-variant="normal" font-weight="400" font-stretch="normal" font-size="73" text-anchor="start" direction="ltr" writing-mode="lr-tb" unicode-bidi="normal" text-decoration="none" transform="matrix(1 0 0 1 1082.71 1435)">Cleaned Weather DF</text><path d="M0-3.4375 121.915-3.4375 121.915 222.811 118.478 219.374 214.039 219.374 214.039 226.249 115.04 226.249 115.04 0 118.478 3.4375 0 3.4375ZM209.456 209.061 236.956 222.811 209.456 236.561Z" fill="#000000" fill-rule="nonzero" fill-opacity="1" transform="matrix(1 0 0 -1 748.5 977.311)"/><path d="M747.5 1163.06 869.538 1163.06 869.538 1389.31 866.1 1385.87 961.783 1385.87 961.783 1392.75 862.663 1392.75 862.663 1166.5 866.1 1169.94 747.5 1169.94ZM957.2 1375.56 984.7 1389.31 957.2 1403.06Z" fill="#000000" fill-rule="nonzero" fill-opacity="1"/><path d="M3738.5 668.167C3738.5 693.388 3548.22 713.833 3313.5 713.833 3078.78 713.833 2888.5 693.388 2888.5 668.167" stroke="#042433" stroke-width="6.875" stroke-linecap="square" stroke-linejoin="miter" stroke-miterlimit="8" stroke-dasharray="20.625 6.875" stroke-opacity="1" fill="none" fill-rule="evenodd"/><path d="M2888.5 668.167C2888.5 642.946 3078.78 622.5 3313.5 622.5 3548.22 622.5 3738.5 642.946 3738.5 668.167L3738.5 850.833C3738.5 876.054 3548.22 896.5 3313.5 896.5 3078.78 896.5 2888.5 876.054 2888.5 850.833Z" stroke="#042433" stroke-width="6.875" stroke-linecap="square" stroke-linejoin="miter" stroke-miterlimit="8" stroke-dasharray="20.625 6.875" stroke-opacity="1" fill="none" fill-rule="evenodd"/><text fill="#000000" fill-opacity="1" font-family="Aptos,Aptos_MSFontService,sans-serif" font-style="normal" font-variant="normal" font-weight="400" font-stretch="normal" font-size="73" text-anchor="start" direction="ltr" writing-mode="lr-tb" unicode-bidi="normal" text-decoration="none" transform="matrix(1 0 0 1 3074.38 806)">Bike Station DF</text><rect x="3840.5" y="606.5" width="720" height="306" stroke="#042433" stroke-width="6.875" stroke-linecap="butt" stroke-linejoin="miter" stroke-miterlimit="8" stroke-opacity="1" fill="none"/><text fill="#000000" fill-opacity="1" font-family="Calibri,Calibri_MSFontService,sans-serif" font-style="normal" font-variant="normal" font-weight="400" font-stretch="normal" font-size="73" text-anchor="start" direction="ltr" writing-mode="lr-tb" unicode-bidi="normal" text-decoration="none" transform="matrix(1 0 0 1 4021.77 740)">Cluster with</text><text fill="#000000" fill-opacity="1" font-family="Calibri,Calibri_MSFontService,sans-serif" font-style="normal" font-variant="normal" font-weight="400" font-stretch="normal" font-size="73" text-anchor="start" direction="ltr" writing-mode="lr-tb" unicode-bidi="normal" text-decoration="none" transform="matrix(1 0 0 1 4080.55 827)">KMeans</text><path d="M1.21574e-05-3.4375 79.1257-3.43722 79.1256 3.43778-1.21574e-05 3.4375ZM74.5424-13.7497 102.042 0.000360892 74.5423 13.7503Z" fill="#000000" fill-rule="nonzero" fill-opacity="1" transform="matrix(1 0 0 -1 3738.5 759.5)"/><rect x="2066.5" y="605.5" width="720" height="306" stroke="#042433" stroke-width="6.875" stroke-linecap="butt" stroke-linejoin="miter" stroke-miterlimit="8" stroke-opacity="1" fill="none"/><text fill="#000000" fill-opacity="1" font-family="Calibri,Calibri_MSFontService,sans-serif" font-style="normal" font-variant="normal" font-weight="400" font-stretch="normal" font-size="73" text-anchor="start" direction="ltr" writing-mode="lr-tb" unicode-bidi="normal" text-decoration="none" transform="matrix(1 0 0 1 2205.59 782)">Select &amp; Union</text><path d="M2786.52 755.063 2865.65 755.599 2865.6 762.474 2786.48 761.938ZM2861.14 745.256 2888.54 759.192 2860.95 772.755Z" fill="#000000" fill-rule="nonzero" fill-opacity="1"/><path d="M5510.5 513.167C5510.5 538.388 5320.22 558.833 5085.5 558.833 4850.78 558.833 4660.5 538.388 4660.5 513.167" stroke="#042433" stroke-width="6.875" stroke-linecap="butt" stroke-linejoin="miter" stroke-miterlimit="8" stroke-opacity="1" fill="none" fill-rule="evenodd"/><path d="M4660.5 513.167C4660.5 487.946 4850.78 467.5 5085.5 467.5 5320.22 467.5 5510.5 487.946 5510.5 513.167L5510.5 695.833C5510.5 721.054 5320.22 741.5 5085.5 741.5 4850.78 741.5 4660.5 721.054 4660.5 695.833Z" stroke="#042433" stroke-width="6.875" stroke-linecap="butt" stroke-linejoin="miter" stroke-miterlimit="8" stroke-opacity="1" fill="none" fill-rule="evenodd"/><text fill="#000000" fill-opacity="1" font-family="Aptos,Aptos_MSFontService,sans-serif" font-style="normal" font-variant="normal" font-weight="400" font-stretch="normal" font-size="73" text-anchor="start" direction="ltr" writing-mode="lr-tb" unicode-bidi="normal" text-decoration="none" transform="matrix(1 0 0 1 4834.59 651)">Station Zone DF</text><rect x="2066.5" y="-258.5" width="720" height="306" stroke="#042433" stroke-width="6.875" stroke-linecap="butt" stroke-linejoin="miter" stroke-miterlimit="8" stroke-opacity="1" fill="none"/><text fill="#000000" fill-opacity="1" font-family="Calibri,Calibri_MSFontService,sans-serif" font-style="normal" font-variant="normal" font-weight="400" font-stretch="normal" font-size="73" text-anchor="start" direction="ltr" writing-mode="lr-tb" unicode-bidi="normal" text-decoration="none" transform="matrix(1 0 0 1 2140.52 -125)">Group(</text><text fill="#000000" fill-opacity="1" font-family="Consolas,Consolas_MSFontService,sans-serif" font-style="normal" font-variant="normal" font-weight="400" font-stretch="normal" font-size="73" text-anchor="start" direction="ltr" writing-mode="lr-tb" unicode-bidi="normal" text-decoration="none" transform="matrix(1 0 0 1 2349.58 -125)">start_id</text><text fill="#000000" fill-opacity="1" font-family="Consolas,Consolas_MSFontService,sans-serif" font-style="normal" font-variant="normal" font-weight="400" font-stretch="normal" font-size="73" text-anchor="start" direction="ltr" writing-mode="lr-tb" unicode-bidi="normal" text-decoration="none" transform="matrix(1 0 0 1 2670.42 -125)">, </text><text fill="#000000" fill-opacity="1" font-family="Consolas,Consolas_MSFontService,sans-serif" font-style="normal" font-variant="normal" font-weight="400" font-stretch="normal" font-size="73" text-anchor="start" direction="ltr" writing-mode="lr-tb" unicode-bidi="normal" text-decoration="none" transform="matrix(1 0 0 1 2103.02 -38)">timestamp</text><text fill="#000000" fill-opacity="1" font-family="Calibri,Calibri_MSFontService,sans-serif" font-style="normal" font-variant="normal" font-weight="400" font-stretch="normal" font-size="73" text-anchor="start" direction="ltr" writing-mode="lr-tb" unicode-bidi="normal" text-decoration="none" transform="matrix(1 0 0 1 2463.96 -38)">) &amp; Count</text><path d="M3738.5-197.833C3738.5-172.612 3548.22-152.167 3313.5-152.167 3078.78-152.167 2888.5-172.612 2888.5-197.833" stroke="#042433" stroke-width="6.875" stroke-linecap="butt" stroke-linejoin="miter" stroke-miterlimit="8" stroke-dasharray="6.875 6.875" stroke-opacity="1" fill="none" fill-rule="evenodd"/><path d="M2888.5-197.833C2888.5-223.054 3078.78-243.5 3313.5-243.5 3548.22-243.5 3738.5-223.054 3738.5-197.833L3738.5-15.1666C3738.5 10.0544 3548.22 30.5001 3313.5 30.5001 3078.78 30.5001 2888.5 10.0544 2888.5-15.1666Z" stroke="#042433" stroke-width="6.875" stroke-linecap="butt" stroke-linejoin="miter" stroke-miterlimit="8" stroke-dasharray="6.875 6.875" stroke-opacity="1" fill="none" fill-rule="evenodd"/><text fill="#000000" fill-opacity="1" font-family="Aptos,Aptos_MSFontService,sans-serif" font-style="normal" font-variant="normal" font-weight="400" font-stretch="normal" font-size="73" text-anchor="start" direction="ltr" writing-mode="lr-tb" unicode-bidi="normal" text-decoration="none" transform="matrix(1 0 0 1 3005.32 -60)">Station Demand DF</text><path d="M3738.5 166.167C3738.5 191.388 3548.22 211.833 3313.5 211.833 3078.78 211.833 2888.5 191.388 2888.5 166.167" stroke="#042433" stroke-width="6.875" stroke-linecap="butt" stroke-linejoin="miter" stroke-miterlimit="8" stroke-dasharray="6.875 6.875" stroke-opacity="1" fill="none" fill-rule="evenodd"/><path d="M2888.5 166.167C2888.5 140.946 3078.78 120.5 3313.5 120.5 3548.22 120.5 3738.5 140.946 3738.5 166.167L3738.5 348.833C3738.5 374.054 3548.22 394.5 3313.5 394.5 3078.78 394.5 2888.5 374.054 2888.5 348.833Z" stroke="#042433" stroke-width="6.875" stroke-linecap="butt" stroke-linejoin="miter" stroke-miterlimit="8" stroke-dasharray="6.875 6.875" stroke-opacity="1" fill="none" fill-rule="evenodd"/><text fill="#000000" fill-opacity="1" font-family="Aptos,Aptos_MSFontService,sans-serif" font-style="normal" font-variant="normal" font-weight="400" font-stretch="normal" font-size="73" text-anchor="start" direction="ltr" writing-mode="lr-tb" unicode-bidi="normal" text-decoration="none" transform="matrix(1 0 0 1 3032.82 304)">Station Supply DF</text><rect x="3840.5" y="-80.4999" width="720" height="306" stroke="#042433" stroke-width="6.875" stroke-linecap="butt" stroke-linejoin="miter" stroke-miterlimit="8" stroke-opacity="1" fill="none"/><text fill="#000000" fill-opacity="1" font-family="Calibri,Calibri_MSFontService,sans-serif" font-style="normal" font-variant="normal" font-weight="400" font-stretch="normal" font-size="73" text-anchor="start" direction="ltr" writing-mode="lr-tb" unicode-bidi="normal" text-decoration="none" transform="matrix(1 0 0 1 3885.47 53)">Join(</text><text fill="#000000" fill-opacity="1" font-family="Consolas,Consolas_MSFontService,sans-serif" font-style="normal" font-variant="normal" font-weight="400" font-stretch="normal" font-size="73" text-anchor="start" direction="ltr" writing-mode="lr-tb" unicode-bidi="normal" text-decoration="none" transform="matrix(1 0 0 1 4025.26 53)">station_id</text><text fill="#000000" fill-opacity="1" font-family="Calibri,Calibri_MSFontService,sans-serif" font-style="normal" font-variant="normal" font-weight="400" font-stretch="normal" font-size="73" text-anchor="start" direction="ltr" writing-mode="lr-tb" unicode-bidi="normal" text-decoration="none" transform="matrix(1 0 0 1 4426.31 53)">) &amp; </text><text fill="#000000" fill-opacity="1" font-family="Calibri,Calibri_MSFontService,sans-serif" font-style="normal" font-variant="normal" font-weight="400" font-stretch="normal" font-size="73" text-anchor="start" direction="ltr" writing-mode="lr-tb" unicode-bidi="normal" text-decoration="none" transform="matrix(1 0 0 1 3926.97 140)">Group &amp; Agg(</text><text fill="#000000" fill-opacity="1" font-family="Consolas,Consolas_MSFontService,sans-serif" font-style="normal" font-variant="normal" font-weight="400" font-stretch="normal" font-size="73" text-anchor="start" direction="ltr" writing-mode="lr-tb" unicode-bidi="normal" text-decoration="none" transform="matrix(1 0 0 1 4330.95 140)">sum</text><text fill="#000000" fill-opacity="1" font-family="Calibri,Calibri_MSFontService,sans-serif" font-style="normal" font-variant="normal" font-weight="400" font-stretch="normal" font-size="73" text-anchor="start" direction="ltr" writing-mode="lr-tb" unicode-bidi="normal" text-decoration="none" transform="matrix(1 0 0 1 4451.26 140)">)</text><path d="M3738.5-109.938 3792.96-109.938 3792.96-30.0826 3789.52-33.5201 3817.63-33.5201 3817.63-26.6451 3786.08-26.6451 3786.08-106.5 3789.52-103.063 3738.5-103.063ZM3813.04-43.8326 3840.54-30.0826 3813.04-16.3326Z" fill="#000000" fill-rule="nonzero" fill-opacity="1"/><path d="M0-3.4375 54.4587-3.4375 54.4587 95.9512 51.0212 92.5137 79.1257 92.5137 79.1257 99.3887 47.5837 99.3887 47.5837 0 51.0212 3.4375 0 3.4375ZM74.5423 82.2012 102.042 95.9512 74.5423 109.701Z" fill="#000000" fill-rule="nonzero" fill-opacity="1" transform="matrix(1 0 0 -1 3738.5 257.451)"/><path d="M5513.5-211.833C5513.5-186.612 5323.22-166.167 5088.5-166.167 4853.78-166.167 4663.5-186.612 4663.5-211.833" stroke="#042433" stroke-width="6.875" stroke-linecap="butt" stroke-linejoin="miter" stroke-miterlimit="8" stroke-dasharray="6.875 6.875" stroke-opacity="1" fill="none" fill-rule="evenodd"/><path d="M4663.5-211.833C4663.5-237.054 4853.78-257.5 5088.5-257.5 5323.22-257.5 5513.5-237.054 5513.5-211.833L5513.5-29.1667C5513.5-3.94566 5323.22 16.5 5088.5 16.5 4853.78 16.5 4663.5-3.94566 4663.5-29.1667Z" stroke="#042433" stroke-width="6.875" stroke-linecap="butt" stroke-linejoin="miter" stroke-miterlimit="8" stroke-dasharray="6.875 6.875" stroke-opacity="1" fill="none" fill-rule="evenodd"/><text fill="#000000" fill-opacity="1" font-family="Aptos,Aptos_MSFontService,sans-serif" font-style="normal" font-variant="normal" font-weight="400" font-stretch="normal" font-size="73" text-anchor="start" direction="ltr" writing-mode="lr-tb" unicode-bidi="normal" text-decoration="none" transform="matrix(1 0 0 1 4814 -74)">Zone Demand DF</text><path d="M5514.5 164.167C5514.5 189.388 5324.22 209.833 5089.5 209.833 4854.78 209.833 4664.5 189.388 4664.5 164.167" stroke="#042433" stroke-width="6.875" stroke-linecap="butt" stroke-linejoin="miter" stroke-miterlimit="8" stroke-dasharray="6.875 6.875" stroke-opacity="1" fill="none" fill-rule="evenodd"/><path d="M4664.5 164.167C4664.5 138.946 4854.78 118.5 5089.5 118.5 5324.22 118.5 5514.5 138.946 5514.5 164.167L5514.5 346.833C5514.5 372.054 5324.22 392.5 5089.5 392.5 4854.78 392.5 4664.5 372.054 4664.5 346.833Z" stroke="#042433" stroke-width="6.875" stroke-linecap="butt" stroke-linejoin="miter" stroke-miterlimit="8" stroke-dasharray="6.875 6.875" stroke-opacity="1" fill="none" fill-rule="evenodd"/><text fill="#000000" fill-opacity="1" font-family="Aptos,Aptos_MSFontService,sans-serif" font-style="normal" font-variant="normal" font-weight="400" font-stretch="normal" font-size="73" text-anchor="start" direction="ltr" writing-mode="lr-tb" unicode-bidi="normal" text-decoration="none" transform="matrix(1 0 0 1 4842.43 302)">Zone Supply DF</text><path d="M0-3.4375 53.5274-3.4375 53.5274 77.6132 50.0899 74.1757 77.2631 74.1757 77.2631 81.0507 46.6524 81.0507 46.6524 0 50.0899 3.4375 0 3.4375ZM72.6798 63.8632 100.18 77.6132 72.6798 91.3632Z" fill="#000000" fill-rule="nonzero" fill-opacity="1" transform="matrix(1 0 0 -1 4563.5 -42.887)"/><path d="M4563.5 156.062 4617.49 156.062 4617.49 255.45 4614.06 252.013 4641.69 252.013 4641.69 258.888 4610.62 258.888 4610.62 159.5 4614.06 162.938 4563.5 162.938ZM4637.11 241.7 4664.61 255.45 4637.11 269.2Z" fill="#000000" fill-rule="nonzero" fill-opacity="1"/><rect x="2946.5" y="1236.5" width="720" height="305" stroke="#042433" stroke-width="6.875" stroke-linecap="butt" stroke-linejoin="miter" stroke-miterlimit="8" stroke-opacity="1" fill="none"/><text fill="#000000" fill-opacity="1" font-family="Calibri,Calibri_MSFontService,sans-serif" font-style="normal" font-variant="normal" font-weight="400" font-stretch="normal" font-size="73" text-anchor="start" direction="ltr" writing-mode="lr-tb" unicode-bidi="normal" text-decoration="none" transform="matrix(1 0 0 1 3158.97 1412)">Cross Join</text><path d="M1834.5 1385.06 2923.14 1385.06 2923.14 1391.94 1834.5 1391.94ZM2918.56 1374.75 2946.06 1388.5 2918.56 1402.25Z" fill="#000000" fill-rule="nonzero" fill-opacity="1"/><path d="M1834.56 751.063 2043.75 754.721 2043.63 761.595 1834.44 757.937ZM2039.35 744.33 2066.61 758.558 2038.87 771.825Z" fill="#000000" fill-rule="nonzero" fill-opacity="1"/><path d="M0-3.4375 119.025-3.4375 119.025 860.361 115.587 856.923 208.258 856.923 208.258 863.798 112.15 863.798 112.15 0 115.587 3.4375 0 3.4375ZM203.675 846.611 231.175 860.361 203.675 874.111Z" fill="#000000" fill-rule="nonzero" fill-opacity="1" transform="matrix(1 0 0 -1 1834.5 754.861)"/><path d="M5503.5 1297.17C5503.5 1322.39 5313.22 1342.83 5078.5 1342.83 4843.78 1342.83 4653.5 1322.39 4653.5 1297.17" stroke="#042433" stroke-width="6.875" stroke-linecap="square" stroke-linejoin="miter" stroke-miterlimit="8" stroke-dasharray="20.625 6.875" stroke-opacity="1" fill="none" fill-rule="evenodd"/><path d="M4653.5 1297.17C4653.5 1271.95 4843.78 1251.5 5078.5 1251.5 5313.22 1251.5 5503.5 1271.95 5503.5 1297.17L5503.5 1479.83C5503.5 1505.05 5313.22 1525.5 5078.5 1525.5 4843.78 1525.5 4653.5 1505.05 4653.5 1479.83Z" stroke="#042433" stroke-width="6.875" stroke-linecap="square" stroke-linejoin="miter" stroke-miterlimit="8" stroke-dasharray="20.625 6.875" stroke-opacity="1" fill="none" fill-rule="evenodd"/><text fill="#000000" fill-opacity="1" font-family="Aptos,Aptos_MSFontService,sans-serif" font-style="normal" font-variant="normal" font-weight="400" font-stretch="normal" font-size="73" text-anchor="start" direction="ltr" writing-mode="lr-tb" unicode-bidi="normal" text-decoration="none" transform="matrix(1 0 0 1 4775.12 1435)">Zone Weather Data</text><path d="M0.00258143-3.4375 964.187-2.71343 964.182 4.16156-0.00258143 3.4375ZM959.611-13.0294 987.1 0.741273 959.59 14.4706Z" fill="#000000" fill-rule="nonzero" fill-opacity="1" transform="matrix(1 0 0 -1 3666.5 1389.24)"/><path d="M5510.5 820.167C5510.5 845.388 5320.22 865.833 5085.5 865.833 4850.78 865.833 4660.5 845.388 4660.5 820.167" stroke="#042433" stroke-width="6.875" stroke-linecap="butt" stroke-linejoin="miter" stroke-miterlimit="8" stroke-opacity="1" fill="none" fill-rule="evenodd"/><path d="M4660.5 820.167C4660.5 794.946 4850.78 774.5 5085.5 774.5 5320.22 774.5 5510.5 794.946 5510.5 820.167L5510.5 1002.83C5510.5 1028.05 5320.22 1048.5 5085.5 1048.5 4850.78 1048.5 4660.5 1028.05 4660.5 1002.83Z" stroke="#042433" stroke-width="6.875" stroke-linecap="butt" stroke-linejoin="miter" stroke-miterlimit="8" stroke-opacity="1" fill="none" fill-rule="evenodd"/><text fill="#000000" fill-opacity="1" font-family="Aptos,Aptos_MSFontService,sans-serif" font-style="normal" font-variant="normal" font-weight="400" font-stretch="normal" font-size="73" text-anchor="start" direction="ltr" writing-mode="lr-tb" unicode-bidi="normal" text-decoration="none" transform="matrix(1 0 0 1 4954.72 958)">Zone DF</text><path d="M0-3.4375 53.5275-3.4375 53.5275 155.025 50.09 151.588 77.2631 151.588 77.2631 158.463 46.6525 158.463 46.6525 0 50.09 3.4375 0 3.4375ZM72.6798 141.275 100.18 155.025 72.6798 168.775Z" fill="#000000" fill-rule="nonzero" fill-opacity="1" transform="matrix(1 0 0 -1 4560.5 759.525)"/><path d="M4560.5 756.062 4614.03 756.062 4614.03 911.594 4610.59 908.156 4637.76 908.156 4637.76 915.031 4607.15 915.031 4607.15 759.5 4610.59 762.937 4560.5 762.937ZM4633.18 897.844 4660.68 911.594 4633.18 925.344Z" fill="#000000" fill-rule="nonzero" fill-opacity="1"/><path d="M0-3.4375 44.7102-3.4375 44.7102 885.058 41.2727 881.62 219.296 881.62 219.296 888.495 37.8352 888.495 37.8352 0 41.2727 3.4375 0 3.4375ZM214.712 871.308 242.212 885.058 214.712 898.808Z" fill="#000000" fill-rule="nonzero" fill-opacity="1" transform="matrix(-1.83697e-16 -1 -1 1.83697e-16 5085.56 467.712)"/><path d="M5089.38 1048.5 5089.38 1145.9 3306.5 1145.9 3309.94 1142.46 3309.94 1213.5 3303.06 1213.5 3303.06 1139.02 5085.94 1139.02 5082.51 1142.46 5082.51 1048.5ZM3320.25 1208.92 3306.5 1236.42 3292.75 1208.92Z" fill="#000000" fill-rule="nonzero" fill-opacity="1"/><rect x="2065.5" y="105.5" width="720" height="306" stroke="#042433" stroke-width="6.875" stroke-linecap="butt" stroke-linejoin="miter" stroke-miterlimit="8" stroke-opacity="1" fill="none"/><text fill="#000000" fill-opacity="1" font-family="Calibri,Calibri_MSFontService,sans-serif" font-style="normal" font-variant="normal" font-weight="400" font-stretch="normal" font-size="73" text-anchor="start" direction="ltr" writing-mode="lr-tb" unicode-bidi="normal" text-decoration="none" transform="matrix(1 0 0 1 2179.69 239)">Group(</text><text fill="#000000" fill-opacity="1" font-family="Consolas,Consolas_MSFontService,sans-serif" font-style="normal" font-variant="normal" font-weight="400" font-stretch="normal" font-size="73" text-anchor="start" direction="ltr" writing-mode="lr-tb" unicode-bidi="normal" text-decoration="none" transform="matrix(1 0 0 1 2388.76 239)">end_id</text><text fill="#000000" fill-opacity="1" font-family="Consolas,Consolas_MSFontService,sans-serif" font-style="normal" font-variant="normal" font-weight="400" font-stretch="normal" font-size="73" text-anchor="start" direction="ltr" writing-mode="lr-tb" unicode-bidi="normal" text-decoration="none" transform="matrix(1 0 0 1 2629.38 239)">, </text><text fill="#000000" fill-opacity="1" font-family="Consolas,Consolas_MSFontService,sans-serif" font-style="normal" font-variant="normal" font-weight="400" font-stretch="normal" font-size="73" text-anchor="start" direction="ltr" writing-mode="lr-tb" unicode-bidi="normal" text-decoration="none" transform="matrix(1 0 0 1 2102.09 326)">timestamp</text><text fill="#000000" fill-opacity="1" font-family="Calibri,Calibri_MSFontService,sans-serif" font-style="normal" font-variant="normal" font-weight="400" font-stretch="normal" font-size="73" text-anchor="start" direction="ltr" writing-mode="lr-tb" unicode-bidi="normal" text-decoration="none" transform="matrix(1 0 0 1 2463.03 326)">) &amp; Count</text><path d="M0-3.4375 118.56-3.4375 118.56 496.22 115.122 492.782 207.327 492.782 207.327 499.657 111.685 499.657 111.685 0 115.122 3.4375 0 3.4375ZM202.744 482.47 230.244 496.22 202.744 509.97Z" fill="#000000" fill-rule="nonzero" fill-opacity="1" transform="matrix(1 0 0 -1 1834.5 754.72)"/><path d="M0.026865-3.43739 80.0843-2.81171 80.0306 4.06308-0.026865 3.43739ZM75.5817-13.1597 102.973 0.80479 75.3668 14.3394Z" fill="#000000" fill-rule="nonzero" fill-opacity="1" transform="matrix(1 0 0 -1 2786.5 -105.695)"/><path d="M0.0361985-3.43731 81.0253-2.58441 80.9529 4.29021-0.0361985 3.43731ZM76.5508-12.9446 103.905 1.09423 76.2613 14.5539Z" fill="#000000" fill-rule="nonzero" fill-opacity="1" transform="matrix(1 0 0 -1 2785.5 258.594)"/><rect x="5610.5" y="605.5" width="720" height="306" stroke="#042433" stroke-width="6.875" stroke-linecap="butt" stroke-linejoin="miter" stroke-miterlimit="8" stroke-opacity="1" fill="none"/><text fill="#000000" fill-opacity="1" font-family="Calibri,Calibri_MSFontService,sans-serif" font-style="normal" font-variant="normal" font-weight="400" font-stretch="normal" font-size="73" text-anchor="start" direction="ltr" writing-mode="lr-tb" unicode-bidi="normal" text-decoration="none" transform="matrix(1 0 0 1 5774.7 739)">Join(</text><text fill="#000000" fill-opacity="1" font-family="Calibri,Calibri_MSFontService,sans-serif" font-style="normal" font-variant="normal" font-weight="400" font-stretch="normal" font-size="73" text-anchor="start" direction="ltr" writing-mode="lr-tb" unicode-bidi="normal" text-decoration="none" transform="matrix(1 0 0 1 5914.49 739)">zone_id</text><text fill="#000000" fill-opacity="1" font-family="Calibri,Calibri_MSFontService,sans-serif" font-style="normal" font-variant="normal" font-weight="400" font-stretch="normal" font-size="73" text-anchor="start" direction="ltr" writing-mode="lr-tb" unicode-bidi="normal" text-decoration="none" transform="matrix(1 0 0 1 6147.78 739)">, </text><text fill="#000000" fill-opacity="1" font-family="Calibri,Calibri_MSFontService,sans-serif" font-style="normal" font-variant="normal" font-weight="400" font-stretch="normal" font-size="73" text-anchor="start" direction="ltr" writing-mode="lr-tb" unicode-bidi="normal" text-decoration="none" transform="matrix(1 0 0 1 5799.4 826)">timestamp)</text><path d="M0-3.4375 471.083-3.4375 471.083 453.926 464.208 453.926 464.208 0 467.645 3.4375 0 3.4375ZM481.395 449.342 467.645 476.842 453.895 449.342Z" fill="#000000" fill-rule="nonzero" fill-opacity="1" transform="matrix(1 0 0 -1 5503.5 1388.34)"/><path d="M5514.5 252.062 5974.39 252.062 5974.39 582.536 5967.52 582.536 5967.52 255.5 5970.95 258.937 5514.5 258.937ZM5984.7 577.953 5970.95 605.453 5957.2 577.953Z" fill="#0E2841" fill-rule="nonzero" fill-opacity="1"/><path d="M5513.5-123.938 5974.32-123.938 5974.32 582.863 5967.45 582.863 5967.45-120.5 5970.89-117.063 5513.5-117.063ZM5984.64 578.28 5970.89 605.78 5957.14 578.28Z" fill="#000000" fill-rule="nonzero" fill-opacity="1"/><path d="M7284.5 668.167C7284.5 693.388 7094.22 713.833 6859.5 713.833 6624.78 713.833 6434.5 693.388 6434.5 668.167" stroke="#042433" stroke-width="6.875" stroke-linecap="butt" stroke-linejoin="miter" stroke-miterlimit="8" stroke-opacity="1" fill="none" fill-rule="evenodd"/><path d="M6434.5 668.167C6434.5 642.946 6624.78 622.5 6859.5 622.5 7094.22 622.5 7284.5 642.946 7284.5 668.167L7284.5 850.833C7284.5 876.054 7094.22 896.5 6859.5 896.5 6624.78 896.5 6434.5 876.054 6434.5 850.833Z" stroke="#042433" stroke-width="6.875" stroke-linecap="butt" stroke-linejoin="miter" stroke-miterlimit="8" stroke-opacity="1" fill="none" fill-rule="evenodd"/><text fill="#000000" fill-opacity="1" font-family="Aptos,Aptos_MSFontService,sans-serif" font-style="normal" font-variant="normal" font-weight="400" font-stretch="normal" font-size="73" text-anchor="start" direction="ltr" writing-mode="lr-tb" unicode-bidi="normal" text-decoration="none" transform="matrix(1 0 0 1 6540.91 806)">Final Time Series DF</text><path d="M6330.53 755.063 6411.52 755.798 6411.46 762.673 6330.47 761.938ZM6407.03 745.444 6434.41 759.443 6406.78 772.943Z" fill="#000000" fill-rule="nonzero" fill-opacity="1"/><rect x="1902.5" y="-320.5" width="4478" height="2028" stroke="#042433" stroke-width="6.875" stroke-linecap="butt" stroke-linejoin="miter" stroke-miterlimit="8" stroke-dasharray="6.875 6.875" stroke-opacity="1" fill="none"/><text fill="#000000" fill-opacity="1" font-family="Aptos,Aptos_MSFontService,sans-serif" font-style="normal" font-variant="normal" font-weight="400" font-stretch="normal" font-size="83" text-anchor="start" direction="ltr" writing-mode="lr-tb" unicode-bidi="normal" text-decoration="none" transform="matrix(1 0 0 1 3936.97 1642)">Data Enriching</text><rect x="3839.5" y="2150.5" width="720" height="306" stroke="#042433" stroke-width="6.875" stroke-linecap="butt" stroke-linejoin="miter" stroke-miterlimit="8" stroke-opacity="1" fill="none"/><text fill="#000000" fill-opacity="1" font-family="Calibri,Calibri_MSFontService,sans-serif" font-style="normal" font-variant="normal" font-weight="400" font-stretch="normal" font-size="73" text-anchor="start" direction="ltr" writing-mode="lr-tb" unicode-bidi="normal" text-decoration="none" transform="matrix(1 0 0 1 3959.59 2327)">Train &amp; Evaluate</text><rect x="2759.5" y="2162" width="612.5" height="322.5" fill="url(#fill0)"/><path d="M3372 2162 3479.5 2054.5 3479.5 2377 3372 2484.5Z" fill="url(#fill1)" fill-rule="evenodd"/><path d="M2759.5 2162 2867 2054.5 3479.5 2054.5 3372 2162Z" fill="url(#fill2)" fill-rule="evenodd"/><path d="M2759.5 2162 2867 2054.5 3479.5 2054.5 3479.5 2377 3372 2484.5 2759.5 2484.5ZM2759.5 2162 3372 2162 3479.5 2054.5M3372 2162 3372 2484.5" stroke="#0F9ED5" stroke-width="4.58333" stroke-linecap="butt" stroke-linejoin="miter" stroke-miterlimit="8" stroke-opacity="1" fill="none" fill-rule="evenodd"/><text fill="#000000" fill-opacity="1" font-family="Aptos,Aptos_MSFontService,sans-serif" font-style="normal" font-variant="normal" font-weight="400" font-stretch="normal" font-size="73" text-anchor="start" direction="ltr" writing-mode="lr-tb" unicode-bidi="normal" text-decoration="none" transform="matrix(1 0 0 1 2927.24 2347)">XGBoost</text><path d="M6862.77 896.5 6862.77 1974.59 4199.5 1974.59 4202.94 1971.15 4202.94 2128.24 4196.06 2128.24 4196.06 1967.72 6859.33 1967.72 6855.89 1971.15 6855.89 896.5ZM4213.25 2123.66 4199.5 2151.16 4185.75 2123.66Z" fill="#000000" fill-rule="nonzero" fill-opacity="1"/><path d="M3483.5 2300.06 3817.43 2300.06 3817.43 2306.94 3483.5 2306.94ZM3812.85 2289.75 3840.35 2303.5 3812.85 2317.25Z" fill="#000000" fill-rule="nonzero" fill-opacity="1"/><rect x="4917.5" y="2145.75" width="612.75" height="321.75" fill="url(#fill3)"/><path d="M5530.25 2145.75 5637.5 2038.5 5637.5 2360.25 5530.25 2467.5Z" fill="url(#fill4)" fill-rule="evenodd"/><path d="M4917.5 2145.75 5024.75 2038.5 5637.5 2038.5 5530.25 2145.75Z" fill="url(#fill5)" fill-rule="evenodd"/><path d="M4917.5 2145.75 5024.75 2038.5 5637.5 2038.5 5637.5 2360.25 5530.25 2467.5 4917.5 2467.5ZM4917.5 2145.75 5530.25 2145.75 5637.5 2038.5M5530.25 2145.75 5530.25 2467.5" stroke="#4EA72E" stroke-width="4.58333" stroke-linecap="butt" stroke-linejoin="miter" stroke-miterlimit="8" stroke-opacity="1" fill="none" fill-rule="evenodd"/><text fill="#000000" fill-opacity="1" font-family="Aptos,Aptos_MSFontService,sans-serif" font-style="normal" font-variant="normal" font-weight="400" font-stretch="normal" font-size="73" text-anchor="start" direction="ltr" writing-mode="lr-tb" unicode-bidi="normal" text-decoration="none" transform="matrix(1 0 0 1 4955.97 2330)">Prediction Model</text><path d="M4559.53 2300.06 4894.75 2302.56 4894.7 2309.43 4559.47 2306.94ZM4890.24 2292.21 4917.64 2306.16 4890.04 2319.71Z" fill="#000000" fill-rule="nonzero" fill-opacity="1"/><rect x="1902.5" y="1833.5" width="4478" height="821" stroke="#042433" stroke-width="6.875" stroke-linecap="butt" stroke-linejoin="miter" stroke-miterlimit="8" stroke-dasharray="6.875 6.875" stroke-opacity="1" fill="none"/><text fill="#000000" fill-opacity="1" font-family="Aptos,Aptos_MSFontService,sans-serif" font-style="normal" font-variant="normal" font-weight="400" font-stretch="normal" font-size="83" text-anchor="start" direction="ltr" writing-mode="lr-tb" unicode-bidi="normal" text-decoration="none" transform="matrix(1 0 0 1 4044.18 2593)">Learning</text><path d="M-821.5 1947C-821.5 1972.13-1011.78 1992.5-1246.5 1992.5-1481.22 1992.5-1671.5 1972.13-1671.5 1947" stroke="#042433" stroke-width="6.875" stroke-linecap="butt" stroke-linejoin="miter" stroke-miterlimit="8" stroke-opacity="1" fill="none" fill-rule="evenodd"/><path d="M-1671.5 1947C-1671.5 1921.87-1481.22 1901.5-1246.5 1901.5-1011.78 1901.5-821.5 1921.87-821.5 1947L-821.5 2129C-821.5 2154.13-1011.78 2174.5-1246.5 2174.5-1481.22 2174.5-1671.5 2154.13-1671.5 2129Z" stroke="#042433" stroke-width="6.875" stroke-linecap="butt" stroke-linejoin="miter" stroke-miterlimit="8" stroke-opacity="1" fill="none" fill-rule="evenodd"/><path d="M-821.5 2339.17C-821.5 2364.39-1011.78 2384.83-1246.5 2384.83-1481.22 2384.83-1671.5 2364.39-1671.5 2339.17" stroke="#042433" stroke-width="6.875" stroke-linecap="square" stroke-linejoin="miter" stroke-miterlimit="8" stroke-dasharray="20.625 6.875" stroke-opacity="1" fill="none" fill-rule="evenodd"/><path d="M-1671.5 2339.17C-1671.5 2313.95-1481.22 2293.5-1246.5 2293.5-1011.78 2293.5-821.5 2313.95-821.5 2339.17L-821.5 2521.83C-821.5 2547.05-1011.78 2567.5-1246.5 2567.5-1481.22 2567.5-1671.5 2547.05-1671.5 2521.83Z" stroke="#042433" stroke-width="6.875" stroke-linecap="square" stroke-linejoin="miter" stroke-miterlimit="8" stroke-dasharray="20.625 6.875" stroke-opacity="1" fill="none" fill-rule="evenodd"/><text fill="#000000" fill-opacity="1" font-family="Aptos,Aptos_MSFontService,sans-serif" font-style="normal" font-variant="normal" font-weight="400" font-stretch="normal" font-size="83" text-anchor="start" direction="ltr" writing-mode="lr-tb" unicode-bidi="normal" text-decoration="none" transform="matrix(1 0 0 1 -739.292 2062)">In HDFS</text><text fill="#000000" fill-opacity="1" font-family="Aptos,Aptos_MSFontService,sans-serif" font-style="normal" font-variant="normal" font-weight="400" font-stretch="normal" font-size="83" text-anchor="start" direction="ltr" writing-mode="lr-tb" unicode-bidi="normal" text-decoration="none" transform="matrix(1 0 0 1 -757.616 2456)">Temporary</text></g></g></svg>